8888888888                888      8888888888                       
888                       888      888                              
888                       888      888                              
8888888  .d88b.   .d88b.  888      8888888 888d888 .d88b.   .d88b.  
888     d8P  Y8b d8P  Y8b 888      888     888P"  d8P  Y8b d8P  Y8b 
888     88888888 88888888 888      888     888    88888888 88888888 
888     Y8b.     Y8b.     888      888     888    Y8b.     Y8b.     
888      "Y8888   "Y8888  888      888     888     "Y8888   "Y8888  


Genre:Thriller
Language:English
IMDb: 
http://www.imdb.com/title/tt1829735
Source:BluRay Thanks
Encoder:Tony

Format : AVI
Format/Info : Audio Video Interleave
File size : 800 MiB
Duration : 1h 19mn
Overall bit rate : 1 399 Kbps

Video
ID : 0
Format : MPEG-4 Visual
Format profile : Advanced Simple@L5
Format settings, BVOP : 1
Format settings, QPel : No
Format settings, GMC : No warppoints
Format settings, Matrix : Default (H.263)
Codec ID : XVID
Codec ID/Hint : XviD
Duration : 1h 19mn
Bit rate : 1 006 Kbps
Width : 640 pixels
Height : 272 pixels
Display aspect ratio : 2.35:1
Frame rate : 25.000 fps
Color space : YUV
Chroma subsampling : 4:2:0
Bit depth : 8 bits
Scan type : Progressive
Compression mode : Lossy
Bits/(Pixel*Frame) : 0.231
Stream size : 575 MiB (72%)
Writing library : XviD 1.2.1 (UTC 2008-12-04)

Audio
ID : 1
Format : AC-3
Format/Info : Audio Coding 3
Mode extension : CM (complete main)
Codec ID : 2000
Duration : 1h 19mn
Bit rate mode : Constant
Bit rate : 384 Kbps
Channel(s) : 6 channels
Channel positions : Front: L C R, Side: L R, LFE
Sampling rate : 48.0 KHz
Bit depth : 16 bits
Compression mode : Lossy
Stream size : 220 MiB (27%)
Alignment : Aligned on interleaves
Interleave, duration : 40 ms (1.00 video frame)
Interleave, preload duration : 512 ms


Plot:
SICK BOY stars BOOGEYMAN and FIRESTARTER 2: REKINDLEDΓÇÖs Skye McCole Bartusiak as Lucy, a young woman who steps in for a friend to take a job babysitting a young boy confined to his room due to a mysterious illness. Lucy begins to suspect the childΓÇÖs mother, played by horror legend Debbie Rochon, is hiding somethingΓÇöthe truth turns out to be far worse than she could imagine.

Screen Shots:
                               
http://img140.imageshack.us/img140/5114/vlcsnap2012072819h32m15.png
 
http://img827.imageshack.us/img827/4622/vlcsnap2012072819h33m49.png
 
http://img94.imageshack.us/img94/4719/vlcsnap2012072819h32m32.png


8888888888                888      8888888888                       
888                       888      888                              
888                       888      888                              
8888888  .d88b.   .d88b.  888      8888888 888d888 .d88b.   .d88b.  
888     d8P  Y8b d8P  Y8b 888      888     888P"  d8P  Y8b d8P  Y8b 
888     88888888 88888888 888      888     888    88888888 88888888 
888     Y8b.     Y8b.     888      888     888    Y8b.     Y8b.     
888      "Y8888   "Y8888  888      888     888     "Y8888   "Y8888  